solid OpenSCAD_Model
  facet normal -1.000000 -0.000000 -0.000000
    outer loop
      vertex 0.000000 0.000000 0.000000
      vertex 0.000000 0.000000 9.000000
      vertex 0.000000 6.000000 0.000000
    endloop
  endfacet
  facet normal -1.000000 0.000000 0.000000
    outer loop
      vertex 0.000000 6.000000 0.000000
      vertex 0.000000 0.000000 9.000000
      vertex 0.000000 6.000000 9.000000
    endloop
  endfacet
  facet normal 0.000000 -1.000000 0.000000
    outer loop
      vertex 5.873062 0.000000 2.547469
      vertex 0.000000 0.000000 0.000000
      vertex 55.000000 0.000000 0.000000
    endloop
  endfacet
  facet normal 0.000000 -1.000000 0.000000
    outer loop
      vertex 55.000000 0.000000 9.000000
      vertex 0.000000 0.000000 9.000000
      vertex 55.000000 0.000000 0.000000
    endloop
  endfacet
  facet normal 0.000000 -1.000000 0.000000
    outer loop
      vertex 5.873062 0.000000 2.547469
      vertex 5.622249 0.000000 2.465975
      vertex 0.000000 0.000000 0.000000
    endloop
  endfacet
  facet normal 0.000000 -1.000000 0.000000
    outer loop
      vertex 0.000000 0.000000 9.000000
      vertex 0.000000 0.000000 0.000000
      vertex 3.004144 0.000000 4.368140
    endloop
  endfacet
  facet normal 0.000000 -1.000000 0.000000
    outer loop
      vertex 7.162803 0.000000 4.106499
      vertex 7.097219 0.000000 3.851064
      vertex 55.000000 0.000000 0.000000
    endloop
  endfacet
  facet normal 0.000000 -1.000000 0.000000
    outer loop
      vertex 0.000000 0.000000 9.000000
      vertex 3.004144 0.000000 4.368140
      vertex 3.004144 0.000000 4.631860
    endloop
  endfacet
  facet normal 0.000000 -1.000000 0.000000
    outer loop
      vertex 7.195856 0.000000 4.368140
      vertex 7.162803 0.000000 4.106499
      vertex 55.000000 0.000000 0.000000
    endloop
  endfacet
  facet normal 0.000000 -1.000000 0.000000
    outer loop
      vertex 0.000000 0.000000 9.000000
      vertex 3.004144 0.000000 4.631860
      vertex 3.037197 0.000000 4.893501
    endloop
  endfacet
  facet normal 0.000000 -1.000000 0.000000
    outer loop
      vertex 7.195856 0.000000 4.631860
      vertex 7.195856 0.000000 4.368140
      vertex 55.000000 0.000000 0.000000
    endloop
  endfacet
  facet normal 0.000000 -1.000000 0.000000
    outer loop
      vertex 0.000000 0.000000 9.000000
      vertex 3.037197 0.000000 4.893501
      vertex 3.102781 0.000000 5.148936
    endloop
  endfacet
  facet normal 0.000000 -1.000000 0.000000
    outer loop
      vertex 7.162803 0.000000 4.893501
      vertex 7.195856 0.000000 4.631860
      vertex 55.000000 0.000000 0.000000
    endloop
  endfacet
  facet normal 0.000000 -1.000000 0.000000
    outer loop
      vertex 0.000000 0.000000 9.000000
      vertex 3.102781 0.000000 5.148936
      vertex 3.199863 0.000000 5.394137
    endloop
  endfacet
  facet normal 0.000000 -1.000000 0.000000
    outer loop
      vertex 7.097219 0.000000 5.148936
      vertex 7.162803 0.000000 4.893501
      vertex 55.000000 0.000000 0.000000
    endloop
  endfacet
  facet normal 0.000000 -1.000000 0.000000
    outer loop
      vertex 0.000000 0.000000 9.000000
      vertex 3.199863 0.000000 5.394137
      vertex 3.326911 0.000000 5.625236
    endloop
  endfacet
  facet normal 0.000000 -1.000000 0.000000
    outer loop
      vertex 7.000137 0.000000 5.394137
      vertex 7.097219 0.000000 5.148936
      vertex 55.000000 0.000000 0.000000
    endloop
  endfacet
  facet normal 0.000000 -1.000000 0.000000
    outer loop
      vertex 0.000000 0.000000 9.000000
      vertex 3.326911 0.000000 5.625236
      vertex 3.481922 0.000000 5.838590
    endloop
  endfacet
  facet normal 0.000000 -1.000000 0.000000
    outer loop
      vertex 6.873089 0.000000 5.625236
      vertex 7.000137 0.000000 5.394137
      vertex 55.000000 0.000000 0.000000
    endloop
  endfacet
  facet normal 0.000000 -1.000000 0.000000
    outer loop
      vertex 0.000000 0.000000 9.000000
      vertex 3.481922 0.000000 5.838590
      vertex 3.662451 0.000000 6.030834
    endloop
  endfacet
  facet normal 0.000000 -1.000000 0.000000
    outer loop
      vertex 6.718078 0.000000 5.838590
      vertex 6.873089 0.000000 5.625236
      vertex 55.000000 0.000000 0.000000
    endloop
  endfacet
  facet normal 0.000000 -1.000000 0.000000
    outer loop
      vertex 0.000000 0.000000 9.000000
      vertex 3.662451 0.000000 6.030834
      vertex 3.865651 0.000000 6.198936
    endloop
  endfacet
  facet normal 0.000000 -1.000000 0.000000
    outer loop
      vertex 6.537549 0.000000 6.030834
      vertex 6.718078 0.000000 5.838590
      vertex 55.000000 0.000000 0.000000
    endloop
  endfacet
  facet normal 0.000000 -1.000000 0.000000
    outer loop
      vertex 0.000000 0.000000 9.000000
      vertex 3.865651 0.000000 6.198936
      vertex 4.088317 0.000000 6.340244
    endloop
  endfacet
  facet normal 0.000000 -1.000000 0.000000
    outer loop
      vertex 5.363200 0.000000 2.416559
      vertex 5.100000 0.000000 2.400000
      vertex 0.000000 0.000000 0.000000
    endloop
  endfacet
  facet normal 0.000000 -1.000000 0.000000
    outer loop
      vertex 0.000000 0.000000 9.000000
      vertex 4.088317 0.000000 6.340244
      vertex 4.326938 0.000000 6.452531
    endloop
  endfacet
  facet normal 0.000000 -1.000000 0.000000
    outer loop
      vertex 0.000000 0.000000 9.000000
      vertex 4.326938 0.000000 6.452531
      vertex 4.577751 0.000000 6.534025
    endloop
  endfacet
  facet normal 0.000000 -1.000000 0.000000
    outer loop
      vertex 6.111683 0.000000 6.340244
      vertex 6.334349 0.000000 6.198936
      vertex 55.000000 0.000000 0.000000
    endloop
  endfacet
  facet normal 0.000000 -1.000000 0.000000
    outer loop
      vertex 0.000000 0.000000 9.000000
      vertex 4.577751 0.000000 6.534025
      vertex 4.836800 0.000000 6.583441
    endloop
  endfacet
  facet normal 0.000000 -1.000000 0.000000
    outer loop
      vertex 5.873062 0.000000 6.452531
      vertex 6.111683 0.000000 6.340244
      vertex 55.000000 0.000000 0.000000
    endloop
  endfacet
  facet normal 0.000000 -1.000000 0.000000
    outer loop
      vertex 0.000000 0.000000 9.000000
      vertex 4.836800 0.000000 6.583441
      vertex 5.100000 0.000000 6.600000
    endloop
  endfacet
  facet normal 0.000000 -1.000000 0.000000
    outer loop
      vertex 0.000000 0.000000 9.000000
      vertex 5.363200 0.000000 6.583441
      vertex 55.000000 0.000000 0.000000
    endloop
  endfacet
  facet normal 0.000000 -1.000000 0.000000
    outer loop
      vertex 0.000000 0.000000 9.000000
      vertex 5.100000 0.000000 6.600000
      vertex 5.363200 0.000000 6.583441
    endloop
  endfacet
  facet normal 0.000000 -1.000000 0.000000
    outer loop
      vertex 5.363200 0.000000 6.583441
      vertex 5.622249 0.000000 6.534025
      vertex 55.000000 0.000000 0.000000
    endloop
  endfacet
  facet normal 0.000000 -1.000000 0.000000
    outer loop
      vertex 7.097219 0.000000 3.851064
      vertex 7.000137 0.000000 3.605863
      vertex 55.000000 0.000000 0.000000
    endloop
  endfacet
  facet normal 0.000000 -1.000000 0.000000
    outer loop
      vertex 7.000137 0.000000 3.605863
      vertex 6.873089 0.000000 3.374764
      vertex 55.000000 0.000000 0.000000
    endloop
  endfacet
  facet normal 0.000000 -1.000000 0.000000
    outer loop
      vertex 6.873089 0.000000 3.374764
      vertex 6.718078 0.000000 3.161410
      vertex 55.000000 0.000000 0.000000
    endloop
  endfacet
  facet normal 0.000000 -1.000000 0.000000
    outer loop
      vertex 6.718078 0.000000 3.161410
      vertex 6.537549 0.000000 2.969166
      vertex 55.000000 0.000000 0.000000
    endloop
  endfacet
  facet normal 0.000000 -1.000000 0.000000
    outer loop
      vertex 5.100000 0.000000 2.400000
      vertex 4.836800 0.000000 2.416559
      vertex 0.000000 0.000000 0.000000
    endloop
  endfacet
  facet normal 0.000000 -1.000000 0.000000
    outer loop
      vertex 6.537549 0.000000 2.969166
      vertex 6.334349 0.000000 2.801064
      vertex 55.000000 0.000000 0.000000
    endloop
  endfacet
  facet normal 0.000000 -1.000000 0.000000
    outer loop
      vertex 6.334349 0.000000 2.801064
      vertex 6.111683 0.000000 2.659756
      vertex 55.000000 0.000000 0.000000
    endloop
  endfacet
  facet normal 0.000000 -1.000000 0.000000
    outer loop
      vertex 6.111683 0.000000 2.659756
      vertex 5.873062 0.000000 2.547469
      vertex 55.000000 0.000000 0.000000
    endloop
  endfacet
  facet normal 0.000000 -1.000000 0.000000
    outer loop
      vertex 5.622249 0.000000 2.465975
      vertex 5.363200 0.000000 2.416559
      vertex 0.000000 0.000000 0.000000
    endloop
  endfacet
  facet normal 0.000000 -1.000000 0.000000
    outer loop
      vertex 4.836800 0.000000 2.416559
      vertex 4.577751 0.000000 2.465975
      vertex 0.000000 0.000000 0.000000
    endloop
  endfacet
  facet normal 0.000000 -1.000000 0.000000
    outer loop
      vertex 4.577751 0.000000 2.465975
      vertex 4.326938 0.000000 2.547469
      vertex 0.000000 0.000000 0.000000
    endloop
  endfacet
  facet normal 0.000000 -1.000000 0.000000
    outer loop
      vertex 4.088317 0.000000 2.659756
      vertex 0.000000 0.000000 0.000000
      vertex 4.326938 0.000000 2.547469
    endloop
  endfacet
  facet normal 0.000000 -1.000000 0.000000
    outer loop
      vertex 3.865651 0.000000 2.801064
      vertex 0.000000 0.000000 0.000000
      vertex 4.088317 0.000000 2.659756
    endloop
  endfacet
  facet normal 0.000000 -1.000000 0.000000
    outer loop
      vertex 3.662451 0.000000 2.969166
      vertex 0.000000 0.000000 0.000000
      vertex 3.865651 0.000000 2.801064
    endloop
  endfacet
  facet normal 0.000000 -1.000000 0.000000
    outer loop
      vertex 3.481922 0.000000 3.161410
      vertex 0.000000 0.000000 0.000000
      vertex 3.662451 0.000000 2.969166
    endloop
  endfacet
  facet normal 0.000000 -1.000000 0.000000
    outer loop
      vertex 3.326911 0.000000 3.374764
      vertex 0.000000 0.000000 0.000000
      vertex 3.481922 0.000000 3.161410
    endloop
  endfacet
  facet normal 0.000000 -1.000000 0.000000
    outer loop
      vertex 3.199863 0.000000 3.605863
      vertex 0.000000 0.000000 0.000000
      vertex 3.326911 0.000000 3.374764
    endloop
  endfacet
  facet normal 0.000000 -1.000000 0.000000
    outer loop
      vertex 3.102781 0.000000 3.851064
      vertex 0.000000 0.000000 0.000000
      vertex 3.199863 0.000000 3.605863
    endloop
  endfacet
  facet normal 0.000000 -1.000000 0.000000
    outer loop
      vertex 3.037197 0.000000 4.106499
      vertex 0.000000 0.000000 0.000000
      vertex 3.102781 0.000000 3.851064
    endloop
  endfacet
  facet normal 0.000000 -1.000000 0.000000
    outer loop
      vertex 3.004144 0.000000 4.368140
      vertex 0.000000 0.000000 0.000000
      vertex 3.037197 0.000000 4.106499
    endloop
  endfacet
  facet normal 0.000000 -1.000000 0.000000
    outer loop
      vertex 5.622249 0.000000 6.534025
      vertex 5.873062 0.000000 6.452531
      vertex 55.000000 0.000000 0.000000
    endloop
  endfacet
  facet normal 0.000000 -1.000000 0.000000
    outer loop
      vertex 6.334349 0.000000 6.198936
      vertex 6.537549 0.000000 6.030834
      vertex 55.000000 0.000000 0.000000
    endloop
  endfacet
  facet normal -0.000000 -0.000000 -1.000000
    outer loop
      vertex 0.000000 0.000000 0.000000
      vertex 0.000000 6.000000 0.000000
      vertex 55.000000 0.000000 0.000000
    endloop
  endfacet
  facet normal 0.000000 0.000000 -1.000000
    outer loop
      vertex 55.000000 0.000000 0.000000
      vertex 0.000000 6.000000 0.000000
      vertex 49.000000 6.000000 0.000000
    endloop
  endfacet
  facet normal 0.000000 0.000000 -1.000000
    outer loop
      vertex 55.000000 0.000000 0.000000
      vertex 49.000000 6.000000 0.000000
      vertex 49.000000 14.000000 0.000000
    endloop
  endfacet
  facet normal 0.000000 0.000000 -1.000000
    outer loop
      vertex 55.000000 0.000000 0.000000
      vertex 49.000000 14.000000 0.000000
      vertex 55.000000 14.000000 0.000000
    endloop
  endfacet
  facet normal 0.000000 1.000000 0.000000
    outer loop
      vertex 5.873062 6.000000 6.452531
      vertex 0.000000 6.000000 9.000000
      vertex 49.000000 6.000000 0.000000
    endloop
  endfacet
  facet normal 0.000000 1.000000 0.000000
    outer loop
      vertex 49.000000 6.000000 0.000000
      vertex 0.000000 6.000000 9.000000
      vertex 49.000000 6.000000 9.000000
    endloop
  endfacet
  facet normal 0.000000 1.000000 0.000000
    outer loop
      vertex 0.000000 6.000000 0.000000
      vertex 0.000000 6.000000 9.000000
      vertex 3.004144 6.000000 4.631860
    endloop
  endfacet
  facet normal 0.000000 1.000000 0.000000
    outer loop
      vertex 0.000000 6.000000 0.000000
      vertex 3.004144 6.000000 4.631860
      vertex 3.004144 6.000000 4.368140
    endloop
  endfacet
  facet normal 0.000000 1.000000 0.000000
    outer loop
      vertex 0.000000 6.000000 0.000000
      vertex 3.004144 6.000000 4.368140
      vertex 3.037197 6.000000 4.106499
    endloop
  endfacet
  facet normal 0.000000 1.000000 0.000000
    outer loop
      vertex 0.000000 6.000000 0.000000
      vertex 3.037197 6.000000 4.106499
      vertex 3.102781 6.000000 3.851064
    endloop
  endfacet
  facet normal 0.000000 1.000000 0.000000
    outer loop
      vertex 0.000000 6.000000 0.000000
      vertex 3.102781 6.000000 3.851064
      vertex 3.199863 6.000000 3.605863
    endloop
  endfacet
  facet normal 0.000000 1.000000 0.000000
    outer loop
      vertex 0.000000 6.000000 0.000000
      vertex 3.199863 6.000000 3.605863
      vertex 3.326911 6.000000 3.374764
    endloop
  endfacet
  facet normal 0.000000 1.000000 0.000000
    outer loop
      vertex 0.000000 6.000000 0.000000
      vertex 3.326911 6.000000 3.374764
      vertex 3.481922 6.000000 3.161410
    endloop
  endfacet
  facet normal 0.000000 1.000000 0.000000
    outer loop
      vertex 0.000000 6.000000 0.000000
      vertex 3.481922 6.000000 3.161410
      vertex 3.662451 6.000000 2.969166
    endloop
  endfacet
  facet normal 0.000000 1.000000 0.000000
    outer loop
      vertex 0.000000 6.000000 0.000000
      vertex 3.662451 6.000000 2.969166
      vertex 3.865651 6.000000 2.801064
    endloop
  endfacet
  facet normal 0.000000 1.000000 0.000000
    outer loop
      vertex 0.000000 6.000000 0.000000
      vertex 3.865651 6.000000 2.801064
      vertex 4.088317 6.000000 2.659756
    endloop
  endfacet
  facet normal 0.000000 1.000000 0.000000
    outer loop
      vertex 0.000000 6.000000 0.000000
      vertex 4.088317 6.000000 2.659756
      vertex 4.326938 6.000000 2.547469
    endloop
  endfacet
  facet normal 0.000000 1.000000 0.000000
    outer loop
      vertex 0.000000 6.000000 0.000000
      vertex 4.326938 6.000000 2.547469
      vertex 4.577751 6.000000 2.465975
    endloop
  endfacet
  facet normal 0.000000 1.000000 0.000000
    outer loop
      vertex 0.000000 6.000000 0.000000
      vertex 4.577751 6.000000 2.465975
      vertex 4.836800 6.000000 2.416559
    endloop
  endfacet
  facet normal 0.000000 1.000000 0.000000
    outer loop
      vertex 0.000000 6.000000 0.000000
      vertex 4.836800 6.000000 2.416559
      vertex 5.100000 6.000000 2.400000
    endloop
  endfacet
  facet normal 0.000000 1.000000 0.000000
    outer loop
      vertex 0.000000 6.000000 0.000000
      vertex 5.100000 6.000000 2.400000
      vertex 49.000000 6.000000 0.000000
    endloop
  endfacet
  facet normal 0.000000 1.000000 -0.000000
    outer loop
      vertex 5.622249 6.000000 2.465975
      vertex 49.000000 6.000000 0.000000
      vertex 5.363200 6.000000 2.416559
    endloop
  endfacet
  facet normal 0.000000 1.000000 -0.000000
    outer loop
      vertex 5.873062 6.000000 2.547469
      vertex 49.000000 6.000000 0.000000
      vertex 5.622249 6.000000 2.465975
    endloop
  endfacet
  facet normal 0.000000 1.000000 -0.000000
    outer loop
      vertex 6.111683 6.000000 2.659756
      vertex 49.000000 6.000000 0.000000
      vertex 5.873062 6.000000 2.547469
    endloop
  endfacet
  facet normal 0.000000 1.000000 -0.000000
    outer loop
      vertex 6.334349 6.000000 2.801064
      vertex 49.000000 6.000000 0.000000
      vertex 6.111683 6.000000 2.659756
    endloop
  endfacet
  facet normal 0.000000 1.000000 -0.000000
    outer loop
      vertex 6.537549 6.000000 2.969166
      vertex 49.000000 6.000000 0.000000
      vertex 6.334349 6.000000 2.801064
    endloop
  endfacet
  facet normal 0.000000 1.000000 -0.000000
    outer loop
      vertex 6.718078 6.000000 3.161410
      vertex 49.000000 6.000000 0.000000
      vertex 6.537549 6.000000 2.969166
    endloop
  endfacet
  facet normal 0.000000 1.000000 -0.000000
    outer loop
      vertex 6.873089 6.000000 3.374764
      vertex 49.000000 6.000000 0.000000
      vertex 6.718078 6.000000 3.161410
    endloop
  endfacet
  facet normal 0.000000 1.000000 -0.000000
    outer loop
      vertex 7.000137 6.000000 3.605863
      vertex 49.000000 6.000000 0.000000
      vertex 6.873089 6.000000 3.374764
    endloop
  endfacet
  facet normal 0.000000 1.000000 -0.000000
    outer loop
      vertex 7.097219 6.000000 3.851064
      vertex 49.000000 6.000000 0.000000
      vertex 7.000137 6.000000 3.605863
    endloop
  endfacet
  facet normal 0.000000 1.000000 -0.000000
    outer loop
      vertex 7.162803 6.000000 4.106499
      vertex 49.000000 6.000000 0.000000
      vertex 7.097219 6.000000 3.851064
    endloop
  endfacet
  facet normal 0.000000 1.000000 -0.000000
    outer loop
      vertex 7.195856 6.000000 4.368140
      vertex 49.000000 6.000000 0.000000
      vertex 7.162803 6.000000 4.106499
    endloop
  endfacet
  facet normal 0.000000 1.000000 0.000000
    outer loop
      vertex 5.622249 6.000000 6.534025
      vertex 0.000000 6.000000 9.000000
      vertex 5.873062 6.000000 6.452531
    endloop
  endfacet
  facet normal 0.000000 1.000000 0.000000
    outer loop
      vertex 7.195856 6.000000 4.368140
      vertex 7.195856 6.000000 4.631860
      vertex 49.000000 6.000000 0.000000
    endloop
  endfacet
  facet normal 0.000000 1.000000 0.000000
    outer loop
      vertex 4.088317 6.000000 6.340244
      vertex 0.000000 6.000000 9.000000
      vertex 4.326938 6.000000 6.452531
    endloop
  endfacet
  facet normal 0.000000 1.000000 0.000000
    outer loop
      vertex 7.195856 6.000000 4.631860
      vertex 7.162803 6.000000 4.893501
      vertex 49.000000 6.000000 0.000000
    endloop
  endfacet
  facet normal 0.000000 1.000000 0.000000
    outer loop
      vertex 7.162803 6.000000 4.893501
      vertex 7.097219 6.000000 5.148936
      vertex 49.000000 6.000000 0.000000
    endloop
  endfacet
  facet normal 0.000000 1.000000 0.000000
    outer loop
      vertex 4.326938 6.000000 6.452531
      vertex 0.000000 6.000000 9.000000
      vertex 4.577751 6.000000 6.534025
    endloop
  endfacet
  facet normal 0.000000 1.000000 0.000000
    outer loop
      vertex 7.097219 6.000000 5.148936
      vertex 7.000137 6.000000 5.394137
      vertex 49.000000 6.000000 0.000000
    endloop
  endfacet
  facet normal 0.000000 1.000000 0.000000
    outer loop
      vertex 4.577751 6.000000 6.534025
      vertex 0.000000 6.000000 9.000000
      vertex 4.836800 6.000000 6.583441
    endloop
  endfacet
  facet normal 0.000000 1.000000 0.000000
    outer loop
      vertex 7.000137 6.000000 5.394137
      vertex 6.873089 6.000000 5.625236
      vertex 49.000000 6.000000 0.000000
    endloop
  endfacet
  facet normal 0.000000 1.000000 0.000000
    outer loop
      vertex 4.836800 6.000000 6.583441
      vertex 0.000000 6.000000 9.000000
      vertex 5.100000 6.000000 6.600000
    endloop
  endfacet
  facet normal 0.000000 1.000000 0.000000
    outer loop
      vertex 6.873089 6.000000 5.625236
      vertex 6.718078 6.000000 5.838590
      vertex 49.000000 6.000000 0.000000
    endloop
  endfacet
  facet normal 0.000000 1.000000 0.000000
    outer loop
      vertex 6.718078 6.000000 5.838590
      vertex 6.537549 6.000000 6.030834
      vertex 49.000000 6.000000 0.000000
    endloop
  endfacet
  facet normal 0.000000 1.000000 0.000000
    outer loop
      vertex 5.100000 6.000000 6.600000
      vertex 0.000000 6.000000 9.000000
      vertex 5.363200 6.000000 6.583441
    endloop
  endfacet
  facet normal 0.000000 1.000000 0.000000
    outer loop
      vertex 6.537549 6.000000 6.030834
      vertex 6.334349 6.000000 6.198936
      vertex 49.000000 6.000000 0.000000
    endloop
  endfacet
  facet normal 0.000000 1.000000 0.000000
    outer loop
      vertex 5.363200 6.000000 6.583441
      vertex 0.000000 6.000000 9.000000
      vertex 5.622249 6.000000 6.534025
    endloop
  endfacet
  facet normal 0.000000 1.000000 0.000000
    outer loop
      vertex 6.334349 6.000000 6.198936
      vertex 6.111683 6.000000 6.340244
      vertex 49.000000 6.000000 0.000000
    endloop
  endfacet
  facet normal 0.000000 1.000000 0.000000
    outer loop
      vertex 6.111683 6.000000 6.340244
      vertex 5.873062 6.000000 6.452531
      vertex 49.000000 6.000000 0.000000
    endloop
  endfacet
  facet normal 0.000000 1.000000 0.000000
    outer loop
      vertex 3.865651 6.000000 6.198936
      vertex 0.000000 6.000000 9.000000
      vertex 4.088317 6.000000 6.340244
    endloop
  endfacet
  facet normal 0.000000 1.000000 0.000000
    outer loop
      vertex 3.662451 6.000000 6.030834
      vertex 0.000000 6.000000 9.000000
      vertex 3.865651 6.000000 6.198936
    endloop
  endfacet
  facet normal 0.000000 1.000000 0.000000
    outer loop
      vertex 3.481922 6.000000 5.838590
      vertex 0.000000 6.000000 9.000000
      vertex 3.662451 6.000000 6.030834
    endloop
  endfacet
  facet normal 0.000000 1.000000 0.000000
    outer loop
      vertex 3.326911 6.000000 5.625236
      vertex 0.000000 6.000000 9.000000
      vertex 3.481922 6.000000 5.838590
    endloop
  endfacet
  facet normal 0.000000 1.000000 0.000000
    outer loop
      vertex 3.199863 6.000000 5.394137
      vertex 0.000000 6.000000 9.000000
      vertex 3.326911 6.000000 5.625236
    endloop
  endfacet
  facet normal 0.000000 1.000000 0.000000
    outer loop
      vertex 3.102781 6.000000 5.148936
      vertex 0.000000 6.000000 9.000000
      vertex 3.199863 6.000000 5.394137
    endloop
  endfacet
  facet normal 0.000000 1.000000 0.000000
    outer loop
      vertex 3.037197 6.000000 4.893501
      vertex 0.000000 6.000000 9.000000
      vertex 3.102781 6.000000 5.148936
    endloop
  endfacet
  facet normal 0.000000 1.000000 0.000000
    outer loop
      vertex 3.004144 6.000000 4.631860
      vertex 0.000000 6.000000 9.000000
      vertex 3.037197 6.000000 4.893501
    endloop
  endfacet
  facet normal 0.000000 1.000000 -0.000000
    outer loop
      vertex 5.363200 6.000000 2.416559
      vertex 49.000000 6.000000 0.000000
      vertex 5.100000 6.000000 2.400000
    endloop
  endfacet
  facet normal 0.000000 -0.000000 1.000000
    outer loop
      vertex 0.000000 6.000000 9.000000
      vertex 0.000000 0.000000 9.000000
      vertex 55.000000 0.000000 9.000000
    endloop
  endfacet
  facet normal 0.000000 -0.000000 1.000000
    outer loop
      vertex 49.000000 6.000000 9.000000
      vertex 0.000000 6.000000 9.000000
      vertex 55.000000 0.000000 9.000000
    endloop
  endfacet
  facet normal 0.000000 0.000000 1.000000
    outer loop
      vertex 55.000000 14.000000 9.000000
      vertex 49.000000 6.000000 9.000000
      vertex 55.000000 0.000000 9.000000
    endloop
  endfacet
  facet normal 0.000000 -0.000000 1.000000
    outer loop
      vertex 49.000000 14.000000 9.000000
      vertex 49.000000 6.000000 9.000000
      vertex 55.000000 14.000000 9.000000
    endloop
  endfacet
  facet normal 1.000000 0.000000 -0.000000
    outer loop
      vertex 55.000000 0.000000 9.000000
      vertex 55.000000 0.000000 0.000000
      vertex 55.000000 14.000000 0.000000
    endloop
  endfacet
  facet normal 1.000000 0.000000 0.000000
    outer loop
      vertex 55.000000 14.000000 9.000000
      vertex 55.000000 0.000000 9.000000
      vertex 55.000000 14.000000 0.000000
    endloop
  endfacet
  facet normal 1.000000 0.000000 -0.000000
    outer loop
      vertex 3.004144 0.000000 4.631860
      vertex 3.004144 0.000000 4.368140
      vertex 3.004144 6.000000 4.368140
    endloop
  endfacet
  facet normal 1.000000 0.000000 0.000000
    outer loop
      vertex 3.004144 6.000000 4.631860
      vertex 3.004144 0.000000 4.631860
      vertex 3.004144 6.000000 4.368140
    endloop
  endfacet
  facet normal 0.992115 0.000000 0.125333
    outer loop
      vertex 3.004144 0.000000 4.368140
      vertex 3.037197 0.000000 4.106499
      vertex 3.037197 6.000000 4.106499
    endloop
  endfacet
  facet normal 0.992115 -0.000000 0.125333
    outer loop
      vertex 3.004144 6.000000 4.368140
      vertex 3.004144 0.000000 4.368140
      vertex 3.037197 6.000000 4.106499
    endloop
  endfacet
  facet normal 0.968584 0.000000 0.248688
    outer loop
      vertex 3.037197 0.000000 4.106499
      vertex 3.102781 0.000000 3.851064
      vertex 3.102781 6.000000 3.851064
    endloop
  endfacet
  facet normal 0.968584 -0.000000 0.248688
    outer loop
      vertex 3.037197 6.000000 4.106499
      vertex 3.037197 0.000000 4.106499
      vertex 3.102781 6.000000 3.851064
    endloop
  endfacet
  facet normal 0.929776 0.000000 0.368125
    outer loop
      vertex 3.102781 0.000000 3.851064
      vertex 3.199863 0.000000 3.605863
      vertex 3.199863 6.000000 3.605863
    endloop
  endfacet
  facet normal 0.929776 -0.000000 0.368125
    outer loop
      vertex 3.102781 6.000000 3.851064
      vertex 3.102781 0.000000 3.851064
      vertex 3.199863 6.000000 3.605863
    endloop
  endfacet
  facet normal 0.876306 0.000000 0.481754
    outer loop
      vertex 3.199863 0.000000 3.605863
      vertex 3.326911 0.000000 3.374764
      vertex 3.326911 6.000000 3.374764
    endloop
  endfacet
  facet normal 0.876306 -0.000000 0.481754
    outer loop
      vertex 3.199863 6.000000 3.605863
      vertex 3.199863 0.000000 3.605863
      vertex 3.326911 6.000000 3.374764
    endloop
  endfacet
  facet normal 0.809017 0.000000 0.587786
    outer loop
      vertex 3.326911 0.000000 3.374764
      vertex 3.481922 0.000000 3.161410
      vertex 3.481922 6.000000 3.161410
    endloop
  endfacet
  facet normal 0.809017 0.000000 0.587786
    outer loop
      vertex 3.326911 6.000000 3.374764
      vertex 3.326911 0.000000 3.374764
      vertex 3.481922 6.000000 3.161410
    endloop
  endfacet
  facet normal 0.728969 0.000000 0.684547
    outer loop
      vertex 3.481922 0.000000 3.161410
      vertex 3.662451 0.000000 2.969166
      vertex 3.662451 6.000000 2.969166
    endloop
  endfacet
  facet normal 0.728969 0.000000 0.684547
    outer loop
      vertex 3.481922 6.000000 3.161410
      vertex 3.481922 0.000000 3.161410
      vertex 3.662451 6.000000 2.969166
    endloop
  endfacet
  facet normal 0.637425 0.000000 0.770513
    outer loop
      vertex 3.662451 0.000000 2.969166
      vertex 3.865651 0.000000 2.801064
      vertex 3.865651 6.000000 2.801064
    endloop
  endfacet
  facet normal 0.637425 0.000000 0.770513
    outer loop
      vertex 3.662451 6.000000 2.969166
      vertex 3.662451 0.000000 2.969166
      vertex 3.865651 6.000000 2.801064
    endloop
  endfacet
  facet normal 0.535826 0.000000 0.844328
    outer loop
      vertex 3.865651 0.000000 2.801064
      vertex 4.088317 0.000000 2.659756
      vertex 4.088317 6.000000 2.659756
    endloop
  endfacet
  facet normal 0.535826 0.000000 0.844328
    outer loop
      vertex 3.865651 6.000000 2.801064
      vertex 3.865651 0.000000 2.801064
      vertex 4.088317 6.000000 2.659756
    endloop
  endfacet
  facet normal 0.425781 0.000000 0.904826
    outer loop
      vertex 4.088317 0.000000 2.659756
      vertex 4.326938 0.000000 2.547469
      vertex 4.326938 6.000000 2.547469
    endloop
  endfacet
  facet normal 0.425781 0.000000 0.904826
    outer loop
      vertex 4.088317 6.000000 2.659756
      vertex 4.088317 0.000000 2.659756
      vertex 4.326938 6.000000 2.547469
    endloop
  endfacet
  facet normal 0.309017 0.000000 0.951057
    outer loop
      vertex 4.326938 0.000000 2.547469
      vertex 4.577751 0.000000 2.465975
      vertex 4.577751 6.000000 2.465975
    endloop
  endfacet
  facet normal 0.309017 0.000000 0.951057
    outer loop
      vertex 4.326938 6.000000 2.547469
      vertex 4.326938 0.000000 2.547469
      vertex 4.577751 6.000000 2.465975
    endloop
  endfacet
  facet normal 0.187380 0.000000 0.982287
    outer loop
      vertex 4.577751 0.000000 2.465975
      vertex 4.836800 0.000000 2.416559
      vertex 4.836800 6.000000 2.416559
    endloop
  endfacet
  facet normal 0.187380 0.000000 0.982287
    outer loop
      vertex 4.577751 6.000000 2.465975
      vertex 4.577751 0.000000 2.465975
      vertex 4.836800 6.000000 2.416559
    endloop
  endfacet
  facet normal 0.062790 0.000000 0.998027
    outer loop
      vertex 4.836800 0.000000 2.416559
      vertex 5.100000 0.000000 2.400000
      vertex 5.100000 6.000000 2.400000
    endloop
  endfacet
  facet normal 0.062790 -0.000000 0.998027
    outer loop
      vertex 4.836800 6.000000 2.416559
      vertex 4.836800 0.000000 2.416559
      vertex 5.100000 6.000000 2.400000
    endloop
  endfacet
  facet normal -0.062790 -0.000000 0.998027
    outer loop
      vertex 5.100000 0.000000 2.400000
      vertex 5.363200 0.000000 2.416559
      vertex 5.363200 6.000000 2.416559
    endloop
  endfacet
  facet normal -0.062790 0.000000 0.998027
    outer loop
      vertex 5.100000 6.000000 2.400000
      vertex 5.100000 0.000000 2.400000
      vertex 5.363200 6.000000 2.416559
    endloop
  endfacet
  facet normal -0.187380 -0.000000 0.982287
    outer loop
      vertex 5.363200 0.000000 2.416559
      vertex 5.622249 0.000000 2.465975
      vertex 5.622249 6.000000 2.465975
    endloop
  endfacet
  facet normal -0.187380 -0.000000 0.982287
    outer loop
      vertex 5.363200 6.000000 2.416559
      vertex 5.363200 0.000000 2.416559
      vertex 5.622249 6.000000 2.465975
    endloop
  endfacet
  facet normal -0.309017 -0.000000 0.951057
    outer loop
      vertex 5.622249 0.000000 2.465975
      vertex 5.873062 0.000000 2.547469
      vertex 5.873062 6.000000 2.547469
    endloop
  endfacet
  facet normal -0.309017 -0.000000 0.951057
    outer loop
      vertex 5.622249 6.000000 2.465975
      vertex 5.622249 0.000000 2.465975
      vertex 5.873062 6.000000 2.547469
    endloop
  endfacet
  facet normal -0.425781 0.000000 0.904826
    outer loop
      vertex 5.873062 0.000000 2.547469
      vertex 6.111683 0.000000 2.659756
      vertex 6.111683 6.000000 2.659756
    endloop
  endfacet
  facet normal -0.425781 -0.000000 0.904826
    outer loop
      vertex 5.873062 6.000000 2.547469
      vertex 5.873062 0.000000 2.547469
      vertex 6.111683 6.000000 2.659756
    endloop
  endfacet
  facet normal -0.535826 0.000000 0.844328
    outer loop
      vertex 6.111683 0.000000 2.659756
      vertex 6.334349 0.000000 2.801064
      vertex 6.334349 6.000000 2.801064
    endloop
  endfacet
  facet normal -0.535826 0.000000 0.844328
    outer loop
      vertex 6.111683 6.000000 2.659756
      vertex 6.111683 0.000000 2.659756
      vertex 6.334349 6.000000 2.801064
    endloop
  endfacet
  facet normal -0.637425 0.000000 0.770513
    outer loop
      vertex 6.334349 0.000000 2.801064
      vertex 6.537549 0.000000 2.969166
      vertex 6.537549 6.000000 2.969166
    endloop
  endfacet
  facet normal -0.637425 0.000000 0.770513
    outer loop
      vertex 6.334349 6.000000 2.801064
      vertex 6.334349 0.000000 2.801064
      vertex 6.537549 6.000000 2.969166
    endloop
  endfacet
  facet normal -0.728969 0.000000 0.684547
    outer loop
      vertex 6.718078 0.000000 3.161410
      vertex 6.718078 6.000000 3.161410
      vertex 6.537549 0.000000 2.969166
    endloop
  endfacet
  facet normal -0.728969 0.000000 0.684547
    outer loop
      vertex 6.537549 0.000000 2.969166
      vertex 6.718078 6.000000 3.161410
      vertex 6.537549 6.000000 2.969166
    endloop
  endfacet
  facet normal -0.809017 0.000000 0.587786
    outer loop
      vertex 6.873089 0.000000 3.374764
      vertex 6.873089 6.000000 3.374764
      vertex 6.718078 0.000000 3.161410
    endloop
  endfacet
  facet normal -0.809017 0.000000 0.587786
    outer loop
      vertex 6.718078 0.000000 3.161410
      vertex 6.873089 6.000000 3.374764
      vertex 6.718078 6.000000 3.161410
    endloop
  endfacet
  facet normal -0.876306 0.000000 0.481754
    outer loop
      vertex 7.000137 0.000000 3.605863
      vertex 7.000137 6.000000 3.605863
      vertex 6.873089 0.000000 3.374764
    endloop
  endfacet
  facet normal -0.876306 0.000000 0.481754
    outer loop
      vertex 6.873089 0.000000 3.374764
      vertex 7.000137 6.000000 3.605863
      vertex 6.873089 6.000000 3.374764
    endloop
  endfacet
  facet normal -0.929776 0.000000 0.368125
    outer loop
      vertex 7.097219 0.000000 3.851064
      vertex 7.097219 6.000000 3.851064
      vertex 7.000137 0.000000 3.605863
    endloop
  endfacet
  facet normal -0.929776 0.000000 0.368125
    outer loop
      vertex 7.000137 0.000000 3.605863
      vertex 7.097219 6.000000 3.851064
      vertex 7.000137 6.000000 3.605863
    endloop
  endfacet
  facet normal -0.968584 0.000000 0.248688
    outer loop
      vertex 7.162803 0.000000 4.106499
      vertex 7.162803 6.000000 4.106499
      vertex 7.097219 0.000000 3.851064
    endloop
  endfacet
  facet normal -0.968584 0.000000 0.248688
    outer loop
      vertex 7.097219 0.000000 3.851064
      vertex 7.162803 6.000000 4.106499
      vertex 7.097219 6.000000 3.851064
    endloop
  endfacet
  facet normal -0.992115 0.000000 0.125333
    outer loop
      vertex 7.195856 0.000000 4.368140
      vertex 7.195856 6.000000 4.368140
      vertex 7.162803 0.000000 4.106499
    endloop
  endfacet
  facet normal -0.992115 0.000000 0.125333
    outer loop
      vertex 7.162803 0.000000 4.106499
      vertex 7.195856 6.000000 4.368140
      vertex 7.162803 6.000000 4.106499
    endloop
  endfacet
  facet normal -1.000000 -0.000000 -0.000000
    outer loop
      vertex 7.195856 0.000000 4.368140
      vertex 7.195856 0.000000 4.631860
      vertex 7.195856 6.000000 4.368140
    endloop
  endfacet
  facet normal -1.000000 0.000000 0.000000
    outer loop
      vertex 7.195856 6.000000 4.368140
      vertex 7.195856 0.000000 4.631860
      vertex 7.195856 6.000000 4.631860
    endloop
  endfacet
  facet normal -0.992115 -0.000000 -0.125333
    outer loop
      vertex 7.195856 0.000000 4.631860
      vertex 7.162803 0.000000 4.893501
      vertex 7.195856 6.000000 4.631860
    endloop
  endfacet
  facet normal -0.992115 -0.000000 -0.125333
    outer loop
      vertex 7.195856 6.000000 4.631860
      vertex 7.162803 0.000000 4.893501
      vertex 7.162803 6.000000 4.893501
    endloop
  endfacet
  facet normal -0.968584 -0.000000 -0.248688
    outer loop
      vertex 7.162803 0.000000 4.893501
      vertex 7.097219 0.000000 5.148936
      vertex 7.162803 6.000000 4.893501
    endloop
  endfacet
  facet normal -0.968584 0.000000 -0.248688
    outer loop
      vertex 7.162803 6.000000 4.893501
      vertex 7.097219 0.000000 5.148936
      vertex 7.097219 6.000000 5.148936
    endloop
  endfacet
  facet normal -0.929776 -0.000000 -0.368125
    outer loop
      vertex 7.097219 0.000000 5.148936
      vertex 7.000137 0.000000 5.394137
      vertex 7.097219 6.000000 5.148936
    endloop
  endfacet
  facet normal -0.929776 -0.000000 -0.368125
    outer loop
      vertex 7.097219 6.000000 5.148936
      vertex 7.000137 0.000000 5.394137
      vertex 7.000137 6.000000 5.394137
    endloop
  endfacet
  facet normal -0.876306 -0.000000 -0.481754
    outer loop
      vertex 7.000137 0.000000 5.394137
      vertex 6.873089 0.000000 5.625236
      vertex 7.000137 6.000000 5.394137
    endloop
  endfacet
  facet normal -0.876306 0.000000 -0.481754
    outer loop
      vertex 7.000137 6.000000 5.394137
      vertex 6.873089 0.000000 5.625236
      vertex 6.873089 6.000000 5.625236
    endloop
  endfacet
  facet normal -0.809017 -0.000000 -0.587786
    outer loop
      vertex 6.873089 0.000000 5.625236
      vertex 6.718078 0.000000 5.838590
      vertex 6.873089 6.000000 5.625236
    endloop
  endfacet
  facet normal -0.809017 0.000000 -0.587786
    outer loop
      vertex 6.873089 6.000000 5.625236
      vertex 6.718078 0.000000 5.838590
      vertex 6.718078 6.000000 5.838590
    endloop
  endfacet
  facet normal -0.728969 -0.000000 -0.684547
    outer loop
      vertex 6.718078 0.000000 5.838590
      vertex 6.537549 0.000000 6.030834
      vertex 6.718078 6.000000 5.838590
    endloop
  endfacet
  facet normal -0.728969 0.000000 -0.684547
    outer loop
      vertex 6.718078 6.000000 5.838590
      vertex 6.537549 0.000000 6.030834
      vertex 6.537549 6.000000 6.030834
    endloop
  endfacet
  facet normal -0.637425 -0.000000 -0.770513
    outer loop
      vertex 6.537549 0.000000 6.030834
      vertex 6.334349 0.000000 6.198936
      vertex 6.537549 6.000000 6.030834
    endloop
  endfacet
  facet normal -0.637425 -0.000000 -0.770513
    outer loop
      vertex 6.537549 6.000000 6.030834
      vertex 6.334349 0.000000 6.198936
      vertex 6.334349 6.000000 6.198936
    endloop
  endfacet
  facet normal -0.535826 -0.000000 -0.844328
    outer loop
      vertex 6.334349 0.000000 6.198936
      vertex 6.111683 0.000000 6.340244
      vertex 6.334349 6.000000 6.198936
    endloop
  endfacet
  facet normal -0.535826 0.000000 -0.844328
    outer loop
      vertex 6.334349 6.000000 6.198936
      vertex 6.111683 0.000000 6.340244
      vertex 6.111683 6.000000 6.340244
    endloop
  endfacet
  facet normal -0.425781 -0.000000 -0.904826
    outer loop
      vertex 6.111683 0.000000 6.340244
      vertex 5.873062 0.000000 6.452531
      vertex 6.111683 6.000000 6.340244
    endloop
  endfacet
  facet normal -0.425781 0.000000 -0.904826
    outer loop
      vertex 6.111683 6.000000 6.340244
      vertex 5.873062 0.000000 6.452531
      vertex 5.873062 6.000000 6.452531
    endloop
  endfacet
  facet normal -0.309017 -0.000000 -0.951057
    outer loop
      vertex 5.873062 0.000000 6.452531
      vertex 5.622249 0.000000 6.534025
      vertex 5.873062 6.000000 6.452531
    endloop
  endfacet
  facet normal -0.309017 0.000000 -0.951057
    outer loop
      vertex 5.873062 6.000000 6.452531
      vertex 5.622249 0.000000 6.534025
      vertex 5.622249 6.000000 6.534025
    endloop
  endfacet
  facet normal -0.187380 -0.000000 -0.982287
    outer loop
      vertex 5.622249 0.000000 6.534025
      vertex 5.363200 0.000000 6.583441
      vertex 5.622249 6.000000 6.534025
    endloop
  endfacet
  facet normal -0.187380 0.000000 -0.982287
    outer loop
      vertex 5.622249 6.000000 6.534025
      vertex 5.363200 0.000000 6.583441
      vertex 5.363200 6.000000 6.583441
    endloop
  endfacet
  facet normal -0.062790 -0.000000 -0.998027
    outer loop
      vertex 5.363200 0.000000 6.583441
      vertex 5.100000 0.000000 6.600000
      vertex 5.363200 6.000000 6.583441
    endloop
  endfacet
  facet normal -0.062790 -0.000000 -0.998027
    outer loop
      vertex 5.363200 6.000000 6.583441
      vertex 5.100000 0.000000 6.600000
      vertex 5.100000 6.000000 6.600000
    endloop
  endfacet
  facet normal 0.062790 0.000000 -0.998027
    outer loop
      vertex 5.100000 0.000000 6.600000
      vertex 4.836800 0.000000 6.583441
      vertex 5.100000 6.000000 6.600000
    endloop
  endfacet
  facet normal 0.062790 0.000000 -0.998027
    outer loop
      vertex 5.100000 6.000000 6.600000
      vertex 4.836800 0.000000 6.583441
      vertex 4.836800 6.000000 6.583441
    endloop
  endfacet
  facet normal 0.187380 0.000000 -0.982287
    outer loop
      vertex 4.836800 0.000000 6.583441
      vertex 4.577751 0.000000 6.534025
      vertex 4.836800 6.000000 6.583441
    endloop
  endfacet
  facet normal 0.187380 0.000000 -0.982287
    outer loop
      vertex 4.836800 6.000000 6.583441
      vertex 4.577751 0.000000 6.534025
      vertex 4.577751 6.000000 6.534025
    endloop
  endfacet
  facet normal 0.309017 0.000000 -0.951057
    outer loop
      vertex 4.577751 0.000000 6.534025
      vertex 4.326938 0.000000 6.452531
      vertex 4.577751 6.000000 6.534025
    endloop
  endfacet
  facet normal 0.309017 0.000000 -0.951057
    outer loop
      vertex 4.577751 6.000000 6.534025
      vertex 4.326938 0.000000 6.452531
      vertex 4.326938 6.000000 6.452531
    endloop
  endfacet
  facet normal 0.425781 0.000000 -0.904826
    outer loop
      vertex 4.326938 0.000000 6.452531
      vertex 4.088317 0.000000 6.340244
      vertex 4.326938 6.000000 6.452531
    endloop
  endfacet
  facet normal 0.425781 0.000000 -0.904826
    outer loop
      vertex 4.326938 6.000000 6.452531
      vertex 4.088317 0.000000 6.340244
      vertex 4.088317 6.000000 6.340244
    endloop
  endfacet
  facet normal 0.535826 0.000000 -0.844328
    outer loop
      vertex 4.088317 0.000000 6.340244
      vertex 3.865651 0.000000 6.198936
      vertex 4.088317 6.000000 6.340244
    endloop
  endfacet
  facet normal 0.535826 0.000000 -0.844328
    outer loop
      vertex 4.088317 6.000000 6.340244
      vertex 3.865651 0.000000 6.198936
      vertex 3.865651 6.000000 6.198936
    endloop
  endfacet
  facet normal 0.637425 0.000000 -0.770513
    outer loop
      vertex 3.865651 0.000000 6.198936
      vertex 3.662451 0.000000 6.030834
      vertex 3.865651 6.000000 6.198936
    endloop
  endfacet
  facet normal 0.637425 0.000000 -0.770513
    outer loop
      vertex 3.865651 6.000000 6.198936
      vertex 3.662451 0.000000 6.030834
      vertex 3.662451 6.000000 6.030834
    endloop
  endfacet
  facet normal 0.728969 0.000000 -0.684547
    outer loop
      vertex 3.662451 6.000000 6.030834
      vertex 3.662451 0.000000 6.030834
      vertex 3.481922 0.000000 5.838590
    endloop
  endfacet
  facet normal 0.728969 0.000000 -0.684547
    outer loop
      vertex 3.481922 6.000000 5.838590
      vertex 3.662451 6.000000 6.030834
      vertex 3.481922 0.000000 5.838590
    endloop
  endfacet
  facet normal 0.809017 0.000000 -0.587786
    outer loop
      vertex 3.481922 6.000000 5.838590
      vertex 3.481922 0.000000 5.838590
      vertex 3.326911 0.000000 5.625236
    endloop
  endfacet
  facet normal 0.809017 0.000000 -0.587786
    outer loop
      vertex 3.326911 6.000000 5.625236
      vertex 3.481922 6.000000 5.838590
      vertex 3.326911 0.000000 5.625236
    endloop
  endfacet
  facet normal 0.876306 0.000000 -0.481754
    outer loop
      vertex 3.326911 6.000000 5.625236
      vertex 3.326911 0.000000 5.625236
      vertex 3.199863 0.000000 5.394137
    endloop
  endfacet
  facet normal 0.876306 0.000000 -0.481754
    outer loop
      vertex 3.199863 6.000000 5.394137
      vertex 3.326911 6.000000 5.625236
      vertex 3.199863 0.000000 5.394137
    endloop
  endfacet
  facet normal 0.929776 0.000000 -0.368125
    outer loop
      vertex 3.199863 6.000000 5.394137
      vertex 3.199863 0.000000 5.394137
      vertex 3.102781 0.000000 5.148936
    endloop
  endfacet
  facet normal 0.929776 0.000000 -0.368125
    outer loop
      vertex 3.102781 6.000000 5.148936
      vertex 3.199863 6.000000 5.394137
      vertex 3.102781 0.000000 5.148936
    endloop
  endfacet
  facet normal 0.968584 0.000000 -0.248688
    outer loop
      vertex 3.102781 6.000000 5.148936
      vertex 3.102781 0.000000 5.148936
      vertex 3.037197 0.000000 4.893501
    endloop
  endfacet
  facet normal 0.968584 0.000000 -0.248688
    outer loop
      vertex 3.037197 6.000000 4.893501
      vertex 3.102781 6.000000 5.148936
      vertex 3.037197 0.000000 4.893501
    endloop
  endfacet
  facet normal 0.992115 0.000000 -0.125333
    outer loop
      vertex 3.037197 6.000000 4.893501
      vertex 3.037197 0.000000 4.893501
      vertex 3.004144 0.000000 4.631860
    endloop
  endfacet
  facet normal 0.992115 0.000000 -0.125333
    outer loop
      vertex 3.004144 6.000000 4.631860
      vertex 3.037197 6.000000 4.893501
      vertex 3.004144 0.000000 4.631860
    endloop
  endfacet
  facet normal 0.000000 1.000000 0.000000
    outer loop
      vertex 49.000000 14.000000 0.000000
      vertex 49.000000 14.000000 9.000000
      vertex 55.000000 14.000000 0.000000
    endloop
  endfacet
  facet normal 0.000000 1.000000 0.000000
    outer loop
      vertex 55.000000 14.000000 0.000000
      vertex 49.000000 14.000000 9.000000
      vertex 55.000000 14.000000 9.000000
    endloop
  endfacet
  facet normal -1.000000 -0.000000 -0.000000
    outer loop
      vertex 49.000000 6.000000 0.000000
      vertex 49.000000 6.000000 9.000000
      vertex 49.000000 14.000000 0.000000
    endloop
  endfacet
  facet normal -1.000000 0.000000 0.000000
    outer loop
      vertex 49.000000 14.000000 0.000000
      vertex 49.000000 6.000000 9.000000
      vertex 49.000000 14.000000 9.000000
    endloop
  endfacet
endsolid OpenSCAD_Model
